<svg xmlns="http://www.w3.org/2000/svg" xmlns:xlink="http://www.w3.org/1999/xlink" width="336" zoomAndPan="magnify" viewBox="0 0 252 76.499998" height="102" preserveAspectRatio="xMidYMid meet" version="1.0"><defs><g/></defs><g fill="#ffffff" fill-opacity="1"><g transform="translate(0.25389, 37.566917)"><g><path d="M 1.265625 -8.171875 C 1.265625 -9.828125 1.597656 -11.28125 2.265625 -12.53125 C 2.941406 -13.789062 3.867188 -14.765625 5.046875 -15.453125 C 6.222656 -16.148438 7.53125 -16.5 8.96875 -16.5 C 10.394531 -16.5 11.628906 -16.191406 12.671875 -15.578125 C 13.710938 -14.960938 14.492188 -14.191406 15.015625 -13.265625 L 15.015625 -16.21875 L 17.734375 -16.21875 L 17.734375 0 L 15.015625 0 L 15.015625 -3.015625 C 14.484375 -2.066406 13.6875 -1.28125 12.625 -0.65625 C 11.570312 -0.0390625 10.34375 0.265625 8.9375 0.265625 C 7.5 0.265625 6.195312 -0.0859375 5.03125 -0.796875 C 3.863281 -1.503906 2.941406 -2.5 2.265625 -3.78125 C 1.597656 -5.070312 1.265625 -6.535156 1.265625 -8.171875 Z M 15.015625 -8.140625 C 15.015625 -9.367188 14.765625 -10.4375 14.265625 -11.34375 C 13.773438 -12.25 13.109375 -12.941406 12.265625 -13.421875 C 11.429688 -13.910156 10.507812 -14.15625 9.5 -14.15625 C 8.5 -14.15625 7.582031 -13.914062 6.75 -13.4375 C 5.914062 -12.96875 5.253906 -12.28125 4.765625 -11.375 C 4.273438 -10.46875 4.03125 -9.398438 4.03125 -8.171875 C 4.03125 -6.929688 4.273438 -5.847656 4.765625 -4.921875 C 5.253906 -4.003906 5.914062 -3.304688 6.75 -2.828125 C 7.582031 -2.347656 8.5 -2.109375 9.5 -2.109375 C 10.507812 -2.109375 11.429688 -2.347656 12.265625 -2.828125 C 13.109375 -3.304688 13.773438 -4.003906 14.265625 -4.921875 C 14.765625 -5.847656 15.015625 -6.921875 15.015625 -8.140625 Z M 15.015625 -8.140625 "/></g></g></g><g fill="#ffffff" fill-opacity="1"><g transform="translate(20.268396, 37.566917)"><g><path d="M 8.96875 -16.5 C 10.375 -16.5 11.601562 -16.191406 12.65625 -15.578125 C 13.707031 -14.960938 14.492188 -14.191406 15.015625 -13.265625 L 15.015625 -16.21875 L 17.734375 -16.21875 L 17.734375 0.359375 C 17.734375 1.835938 17.414062 3.15625 16.78125 4.3125 C 16.15625 5.46875 15.253906 6.367188 14.078125 7.015625 C 12.898438 7.671875 11.535156 8 9.984375 8 C 7.847656 8 6.066406 7.492188 4.640625 6.484375 C 3.222656 5.472656 2.382812 4.101562 2.125 2.375 L 4.796875 2.375 C 5.085938 3.351562 5.695312 4.144531 6.625 4.75 C 7.5625 5.351562 8.679688 5.65625 9.984375 5.65625 C 11.460938 5.65625 12.671875 5.191406 13.609375 4.265625 C 14.546875 3.335938 15.015625 2.035156 15.015625 0.359375 L 15.015625 -3.046875 C 14.484375 -2.097656 13.691406 -1.304688 12.640625 -0.671875 C 11.597656 -0.046875 10.375 0.265625 8.96875 0.265625 C 7.53125 0.265625 6.222656 -0.0859375 5.046875 -0.796875 C 3.867188 -1.503906 2.941406 -2.5 2.265625 -3.78125 C 1.597656 -5.070312 1.265625 -6.535156 1.265625 -8.171875 C 1.265625 -9.828125 1.597656 -11.28125 2.265625 -12.53125 C 2.941406 -13.789062 3.867188 -14.765625 5.046875 -15.453125 C 6.222656 -16.148438 7.53125 -16.5 8.96875 -16.5 Z M 15.015625 -8.140625 C 15.015625 -9.367188 14.765625 -10.4375 14.265625 -11.34375 C 13.773438 -12.25 13.109375 -12.941406 12.265625 -13.421875 C 11.429688 -13.910156 10.507812 -14.15625 9.5 -14.15625 C 8.5 -14.15625 7.582031 -13.914062 6.75 -13.4375 C 5.914062 -12.96875 5.253906 -12.28125 4.765625 -11.375 C 4.273438 -10.46875 4.03125 -9.398438 4.03125 -8.171875 C 4.03125 -6.929688 4.273438 -5.847656 4.765625 -4.921875 C 5.253906 -4.003906 5.914062 -3.304688 6.75 -2.828125 C 7.582031 -2.347656 8.5 -2.109375 9.5 -2.109375 C 10.507812 -2.109375 11.429688 -2.347656 12.265625 -2.828125 C 13.109375 -3.304688 13.773438 -4.003906 14.265625 -4.921875 C 14.765625 -5.847656 15.015625 -6.921875 15.015625 -8.140625 Z M 15.015625 -8.140625 "/></g></g></g><g fill="#ffffff" fill-opacity="1"><g transform="translate(40.282902, 37.566917)"><g><path d="M 17.078125 -8.734375 C 17.078125 -8.222656 17.050781 -7.679688 17 -7.109375 L 4.03125 -7.109375 C 4.125 -5.503906 4.671875 -4.253906 5.671875 -3.359375 C 6.671875 -2.460938 7.878906 -2.015625 9.296875 -2.015625 C 10.460938 -2.015625 11.4375 -2.285156 12.21875 -2.828125 C 13 -3.367188 13.546875 -4.09375 13.859375 -5 L 16.765625 -5 C 16.328125 -3.445312 15.457031 -2.179688 14.15625 -1.203125 C 12.851562 -0.222656 11.234375 0.265625 9.296875 0.265625 C 7.753906 0.265625 6.375 -0.078125 5.15625 -0.765625 C 3.945312 -1.460938 2.992188 -2.445312 2.296875 -3.71875 C 1.609375 -4.988281 1.265625 -6.460938 1.265625 -8.140625 C 1.265625 -9.816406 1.597656 -11.285156 2.265625 -12.546875 C 2.941406 -13.816406 3.882812 -14.789062 5.09375 -15.46875 C 6.3125 -16.15625 7.710938 -16.5 9.296875 -16.5 C 10.835938 -16.5 12.195312 -16.160156 13.375 -15.484375 C 14.5625 -14.816406 15.472656 -13.894531 16.109375 -12.71875 C 16.753906 -11.539062 17.078125 -10.210938 17.078125 -8.734375 Z M 14.296875 -9.296875 C 14.296875 -10.328125 14.066406 -11.210938 13.609375 -11.953125 C 13.160156 -12.691406 12.546875 -13.253906 11.765625 -13.640625 C 10.984375 -14.023438 10.117188 -14.21875 9.171875 -14.21875 C 7.816406 -14.21875 6.660156 -13.78125 5.703125 -12.90625 C 4.742188 -12.039062 4.195312 -10.835938 4.0625 -9.296875 Z M 14.296875 -9.296875 "/></g></g></g><g fill="#ffffff" fill-opacity="1"><g transform="translate(58.639398, 37.566917)"><g><path d="M 10.1875 -16.515625 C 12.15625 -16.515625 13.75 -15.914062 14.96875 -14.71875 C 16.195312 -13.53125 16.8125 -11.8125 16.8125 -9.5625 L 16.8125 0 L 14.15625 0 L 14.15625 -9.171875 C 14.15625 -10.796875 13.75 -12.035156 12.9375 -12.890625 C 12.125 -13.753906 11.019531 -14.1875 9.625 -14.1875 C 8.195312 -14.1875 7.0625 -13.738281 6.21875 -12.84375 C 5.382812 -11.957031 4.96875 -10.664062 4.96875 -8.96875 L 4.96875 0 L 2.28125 0 L 2.28125 -16.21875 L 4.96875 -16.21875 L 4.96875 -13.921875 C 5.507812 -14.742188 6.238281 -15.378906 7.15625 -15.828125 C 8.070312 -16.285156 9.082031 -16.515625 10.1875 -16.515625 Z M 10.1875 -16.515625 "/></g></g></g><g fill="#ffffff" fill-opacity="1"><g transform="translate(77.588044, 37.566917)"><g><path d="M 1.265625 -8.140625 C 1.265625 -9.816406 1.597656 -11.28125 2.265625 -12.53125 C 2.941406 -13.789062 3.878906 -14.765625 5.078125 -15.453125 C 6.273438 -16.148438 7.640625 -16.5 9.171875 -16.5 C 11.171875 -16.5 12.816406 -16.015625 14.109375 -15.046875 C 15.398438 -14.078125 16.253906 -12.734375 16.671875 -11.015625 L 13.765625 -11.015625 C 13.492188 -12.003906 12.957031 -12.785156 12.15625 -13.359375 C 11.351562 -13.929688 10.359375 -14.21875 9.171875 -14.21875 C 7.640625 -14.21875 6.398438 -13.6875 5.453125 -12.625 C 4.503906 -11.570312 4.03125 -10.078125 4.03125 -8.140625 C 4.03125 -6.191406 4.503906 -4.679688 5.453125 -3.609375 C 6.398438 -2.546875 7.640625 -2.015625 9.171875 -2.015625 C 10.359375 -2.015625 11.347656 -2.289062 12.140625 -2.84375 C 12.929688 -3.394531 13.472656 -4.1875 13.765625 -5.21875 L 16.671875 -5.21875 C 16.234375 -3.550781 15.363281 -2.21875 14.0625 -1.21875 C 12.757812 -0.226562 11.128906 0.265625 9.171875 0.265625 C 7.640625 0.265625 6.273438 -0.078125 5.078125 -0.765625 C 3.878906 -1.460938 2.941406 -2.441406 2.265625 -3.703125 C 1.597656 -4.960938 1.265625 -6.441406 1.265625 -8.140625 Z M 1.265625 -8.140625 "/></g></g></g><g fill="#ffffff" fill-opacity="1"><g transform="translate(95.559651, 37.566917)"><g><path d="M 16.25 -16.21875 L 6.484375 7.640625 L 3.703125 7.640625 L 6.90625 -0.171875 L 0.359375 -16.21875 L 3.34375 -16.21875 L 8.4375 -3.078125 L 13.46875 -16.21875 Z M 16.25 -16.21875 "/></g></g></g><g fill="#ffffff" fill-opacity="1"><g transform="translate(112.228542, 37.566917)"><g><path d="M 4.96875 -13.234375 C 5.507812 -14.160156 6.304688 -14.9375 7.359375 -15.5625 C 8.410156 -16.1875 9.640625 -16.5 11.046875 -16.5 C 12.484375 -16.5 13.789062 -16.148438 14.96875 -15.453125 C 16.144531 -14.765625 17.066406 -13.789062 17.734375 -12.53125 C 18.410156 -11.28125 18.75 -9.828125 18.75 -8.171875 C 18.75 -6.535156 18.410156 -5.070312 17.734375 -3.78125 C 17.066406 -2.5 16.144531 -1.503906 14.96875 -0.796875 C 13.789062 -0.0859375 12.484375 0.265625 11.046875 0.265625 C 9.660156 0.265625 8.4375 -0.0390625 7.375 -0.65625 C 6.320312 -1.28125 5.519531 -2.054688 4.96875 -2.984375 L 4.96875 7.703125 L 2.28125 7.703125 L 2.28125 -16.21875 L 4.96875 -16.21875 Z M 15.984375 -8.171875 C 15.984375 -9.398438 15.738281 -10.46875 15.25 -11.375 C 14.757812 -12.28125 14.09375 -12.96875 13.25 -13.4375 C 12.40625 -13.914062 11.484375 -14.15625 10.484375 -14.15625 C 9.492188 -14.15625 8.578125 -13.910156 7.734375 -13.421875 C 6.898438 -12.941406 6.226562 -12.242188 5.71875 -11.328125 C 5.21875 -10.410156 4.96875 -9.347656 4.96875 -8.140625 C 4.96875 -6.921875 5.21875 -5.847656 5.71875 -4.921875 C 6.226562 -4.003906 6.898438 -3.304688 7.734375 -2.828125 C 8.578125 -2.347656 9.492188 -2.109375 10.484375 -2.109375 C 11.484375 -2.109375 12.40625 -2.347656 13.25 -2.828125 C 14.09375 -3.304688 14.757812 -4.003906 15.25 -4.921875 C 15.738281 -5.847656 15.984375 -6.929688 15.984375 -8.171875 Z M 15.984375 -8.171875 "/></g></g></g><g fill="#ffffff" fill-opacity="1"><g transform="translate(132.243048, 37.566917)"><g><path d="M 1.265625 -8.171875 C 1.265625 -9.828125 1.597656 -11.28125 2.265625 -12.53125 C 2.941406 -13.789062 3.867188 -14.765625 5.046875 -15.453125 C 6.222656 -16.148438 7.53125 -16.5 8.96875 -16.5 C 10.394531 -16.5 11.628906 -16.191406 12.671875 -15.578125 C 13.710938 -14.960938 14.492188 -14.191406 15.015625 -13.265625 L 15.015625 -16.21875 L 17.734375 -16.21875 L 17.734375 0 L 15.015625 0 L 15.015625 -3.015625 C 14.484375 -2.066406 13.6875 -1.28125 12.625 -0.65625 C 11.570312 -0.0390625 10.34375 0.265625 8.9375 0.265625 C 7.5 0.265625 6.195312 -0.0859375 5.03125 -0.796875 C 3.863281 -1.503906 2.941406 -2.5 2.265625 -3.78125 C 1.597656 -5.070312 1.265625 -6.535156 1.265625 -8.171875 Z M 15.015625 -8.140625 C 15.015625 -9.367188 14.765625 -10.4375 14.265625 -11.34375 C 13.773438 -12.25 13.109375 -12.941406 12.265625 -13.421875 C 11.429688 -13.910156 10.507812 -14.15625 9.5 -14.15625 C 8.5 -14.15625 7.582031 -13.914062 6.75 -13.4375 C 5.914062 -12.96875 5.253906 -12.28125 4.765625 -11.375 C 4.273438 -10.46875 4.03125 -9.398438 4.03125 -8.171875 C 4.03125 -6.929688 4.273438 -5.847656 4.765625 -4.921875 C 5.253906 -4.003906 5.914062 -3.304688 6.75 -2.828125 C 7.582031 -2.347656 8.5 -2.109375 9.5 -2.109375 C 10.507812 -2.109375 11.429688 -2.347656 12.265625 -2.828125 C 13.109375 -3.304688 13.773438 -4.003906 14.265625 -4.921875 C 14.765625 -5.847656 15.015625 -6.921875 15.015625 -8.140625 Z M 15.015625 -8.140625 "/></g></g></g><g fill="#ffffff" fill-opacity="1"><g transform="translate(152.257554, 37.566917)"><g><path d="M 1.265625 -8.140625 C 1.265625 -9.816406 1.597656 -11.28125 2.265625 -12.53125 C 2.941406 -13.789062 3.878906 -14.765625 5.078125 -15.453125 C 6.273438 -16.148438 7.640625 -16.5 9.171875 -16.5 C 11.171875 -16.5 12.816406 -16.015625 14.109375 -15.046875 C 15.398438 -14.078125 16.253906 -12.734375 16.671875 -11.015625 L 13.765625 -11.015625 C 13.492188 -12.003906 12.957031 -12.785156 12.15625 -13.359375 C 11.351562 -13.929688 10.359375 -14.21875 9.171875 -14.21875 C 7.640625 -14.21875 6.398438 -13.6875 5.453125 -12.625 C 4.503906 -11.570312 4.03125 -10.078125 4.03125 -8.140625 C 4.03125 -6.191406 4.503906 -4.679688 5.453125 -3.609375 C 6.398438 -2.546875 7.640625 -2.015625 9.171875 -2.015625 C 10.359375 -2.015625 11.347656 -2.289062 12.140625 -2.84375 C 12.929688 -3.394531 13.472656 -4.1875 13.765625 -5.21875 L 16.671875 -5.21875 C 16.234375 -3.550781 15.363281 -2.21875 14.0625 -1.21875 C 12.757812 -0.226562 11.128906 0.265625 9.171875 0.265625 C 7.640625 0.265625 6.273438 -0.078125 5.078125 -0.765625 C 3.878906 -1.460938 2.941406 -2.441406 2.265625 -3.703125 C 1.597656 -4.960938 1.265625 -6.441406 1.265625 -8.140625 Z M 1.265625 -8.140625 "/></g></g></g><g fill="#ffffff" fill-opacity="1"><g transform="translate(170.22916, 37.566917)"><g><path d="M 11.34375 0 L 4.96875 -7.171875 L 4.96875 0 L 2.28125 0 L 2.28125 -21.90625 L 4.96875 -21.90625 L 4.96875 -9.03125 L 11.21875 -16.21875 L 14.984375 -16.21875 L 7.34375 -8.140625 L 15.015625 0 Z M 11.34375 0 "/></g></g></g><g fill="#ffffff" fill-opacity="1"><g transform="translate(185.476897, 37.566917)"><g><path d="M 1.265625 -8.171875 C 1.265625 -9.828125 1.597656 -11.28125 2.265625 -12.53125 C 2.941406 -13.789062 3.867188 -14.765625 5.046875 -15.453125 C 6.222656 -16.148438 7.53125 -16.5 8.96875 -16.5 C 10.394531 -16.5 11.628906 -16.191406 12.671875 -15.578125 C 13.710938 -14.960938 14.492188 -14.191406 15.015625 -13.265625 L 15.015625 -16.21875 L 17.734375 -16.21875 L 17.734375 0 L 15.015625 0 L 15.015625 -3.015625 C 14.484375 -2.066406 13.6875 -1.28125 12.625 -0.65625 C 11.570312 -0.0390625 10.34375 0.265625 8.9375 0.265625 C 7.5 0.265625 6.195312 -0.0859375 5.03125 -0.796875 C 3.863281 -1.503906 2.941406 -2.5 2.265625 -3.78125 C 1.597656 -5.070312 1.265625 -6.535156 1.265625 -8.171875 Z M 15.015625 -8.140625 C 15.015625 -9.367188 14.765625 -10.4375 14.265625 -11.34375 C 13.773438 -12.25 13.109375 -12.941406 12.265625 -13.421875 C 11.429688 -13.910156 10.507812 -14.15625 9.5 -14.15625 C 8.5 -14.15625 7.582031 -13.914062 6.75 -13.4375 C 5.914062 -12.96875 5.253906 -12.28125 4.765625 -11.375 C 4.273438 -10.46875 4.03125 -9.398438 4.03125 -8.171875 C 4.03125 -6.929688 4.273438 -5.847656 4.765625 -4.921875 C 5.253906 -4.003906 5.914062 -3.304688 6.75 -2.828125 C 7.582031 -2.347656 8.5 -2.109375 9.5 -2.109375 C 10.507812 -2.109375 11.429688 -2.347656 12.265625 -2.828125 C 13.109375 -3.304688 13.773438 -4.003906 14.265625 -4.921875 C 14.765625 -5.847656 15.015625 -6.921875 15.015625 -8.140625 Z M 15.015625 -8.140625 "/></g></g></g><g fill="#ffffff" fill-opacity="1"><g transform="translate(205.491403, 37.566917)"><g><path d="M 8.96875 -16.5 C 10.375 -16.5 11.601562 -16.191406 12.65625 -15.578125 C 13.707031 -14.960938 14.492188 -14.191406 15.015625 -13.265625 L 15.015625 -16.21875 L 17.734375 -16.21875 L 17.734375 0.359375 C 17.734375 1.835938 17.414062 3.15625 16.78125 4.3125 C 16.15625 5.46875 15.253906 6.367188 14.078125 7.015625 C 12.898438 7.671875 11.535156 8 9.984375 8 C 7.847656 8 6.066406 7.492188 4.640625 6.484375 C 3.222656 5.472656 2.382812 4.101562 2.125 2.375 L 4.796875 2.375 C 5.085938 3.351562 5.695312 4.144531 6.625 4.75 C 7.5625 5.351562 8.679688 5.65625 9.984375 5.65625 C 11.460938 5.65625 12.671875 5.191406 13.609375 4.265625 C 14.546875 3.335938 15.015625 2.035156 15.015625 0.359375 L 15.015625 -3.046875 C 14.484375 -2.097656 13.691406 -1.304688 12.640625 -0.671875 C 11.597656 -0.046875 10.375 0.265625 8.96875 0.265625 C 7.53125 0.265625 6.222656 -0.0859375 5.046875 -0.796875 C 3.867188 -1.503906 2.941406 -2.5 2.265625 -3.78125 C 1.597656 -5.070312 1.265625 -6.535156 1.265625 -8.171875 C 1.265625 -9.828125 1.597656 -11.28125 2.265625 -12.53125 C 2.941406 -13.789062 3.867188 -14.765625 5.046875 -15.453125 C 6.222656 -16.148438 7.53125 -16.5 8.96875 -16.5 Z M 15.015625 -8.140625 C 15.015625 -9.367188 14.765625 -10.4375 14.265625 -11.34375 C 13.773438 -12.25 13.109375 -12.941406 12.265625 -13.421875 C 11.429688 -13.910156 10.507812 -14.15625 9.5 -14.15625 C 8.5 -14.15625 7.582031 -13.914062 6.75 -13.4375 C 5.914062 -12.96875 5.253906 -12.28125 4.765625 -11.375 C 4.273438 -10.46875 4.03125 -9.398438 4.03125 -8.171875 C 4.03125 -6.929688 4.273438 -5.847656 4.765625 -4.921875 C 5.253906 -4.003906 5.914062 -3.304688 6.75 -2.828125 C 7.582031 -2.347656 8.5 -2.109375 9.5 -2.109375 C 10.507812 -2.109375 11.429688 -2.347656 12.265625 -2.828125 C 13.109375 -3.304688 13.773438 -4.003906 14.265625 -4.921875 C 14.765625 -5.847656 15.015625 -6.921875 15.015625 -8.140625 Z M 15.015625 -8.140625 "/></g></g></g><g fill="#ffffff" fill-opacity="1"><g transform="translate(225.505898, 37.566917)"><g><path d="M 17.078125 -8.734375 C 17.078125 -8.222656 17.050781 -7.679688 17 -7.109375 L 4.03125 -7.109375 C 4.125 -5.503906 4.671875 -4.253906 5.671875 -3.359375 C 6.671875 -2.460938 7.878906 -2.015625 9.296875 -2.015625 C 10.460938 -2.015625 11.4375 -2.285156 12.21875 -2.828125 C 13 -3.367188 13.546875 -4.09375 13.859375 -5 L 16.765625 -5 C 16.328125 -3.445312 15.457031 -2.179688 14.15625 -1.203125 C 12.851562 -0.222656 11.234375 0.265625 9.296875 0.265625 C 7.753906 0.265625 6.375 -0.078125 5.15625 -0.765625 C 3.945312 -1.460938 2.992188 -2.445312 2.296875 -3.71875 C 1.609375 -4.988281 1.265625 -6.460938 1.265625 -8.140625 C 1.265625 -9.816406 1.597656 -11.285156 2.265625 -12.546875 C 2.941406 -13.816406 3.882812 -14.789062 5.09375 -15.46875 C 6.3125 -16.15625 7.710938 -16.5 9.296875 -16.5 C 10.835938 -16.5 12.195312 -16.160156 13.375 -15.484375 C 14.5625 -14.816406 15.472656 -13.894531 16.109375 -12.71875 C 16.753906 -11.539062 17.078125 -10.210938 17.078125 -8.734375 Z M 14.296875 -9.296875 C 14.296875 -10.328125 14.066406 -11.210938 13.609375 -11.953125 C 13.160156 -12.691406 12.546875 -13.253906 11.765625 -13.640625 C 10.984375 -14.023438 10.117188 -14.21875 9.171875 -14.21875 C 7.816406 -14.21875 6.660156 -13.78125 5.703125 -12.90625 C 4.742188 -12.039062 4.195312 -10.835938 4.0625 -9.296875 Z M 14.296875 -9.296875 "/></g></g></g><g fill="#3b83f6" fill-opacity="1"><g transform="translate(214.840333, 59.184779)"><g><path d="M 1.21875 0.0625 C 1.019531 0.0625 0.851562 -0.00390625 0.71875 -0.140625 C 0.582031 -0.273438 0.515625 -0.441406 0.515625 -0.640625 C 0.515625 -0.847656 0.582031 -1.019531 0.71875 -1.15625 C 0.851562 -1.289062 1.019531 -1.359375 1.21875 -1.359375 C 1.414062 -1.359375 1.582031 -1.289062 1.71875 -1.15625 C 1.851562 -1.019531 1.921875 -0.847656 1.921875 -0.640625 C 1.921875 -0.441406 1.851562 -0.273438 1.71875 -0.140625 C 1.582031 -0.00390625 1.414062 0.0625 1.21875 0.0625 Z M 1.21875 0.0625 "/></g></g></g><g fill="#3b83f6" fill-opacity="1"><g transform="translate(217.266688, 59.184779)"><g><path d="M 0.5 -3.1875 C 0.5 -3.832031 0.628906 -4.398438 0.890625 -4.890625 C 1.148438 -5.378906 1.515625 -5.757812 1.984375 -6.03125 C 2.453125 -6.300781 2.984375 -6.4375 3.578125 -6.4375 C 4.359375 -6.4375 5 -6.25 5.5 -5.875 C 6.007812 -5.5 6.347656 -4.972656 6.515625 -4.296875 L 5.375 -4.296875 C 5.269531 -4.679688 5.0625 -4.984375 4.75 -5.203125 C 4.4375 -5.429688 4.046875 -5.546875 3.578125 -5.546875 C 2.984375 -5.546875 2.5 -5.335938 2.125 -4.921875 C 1.757812 -4.515625 1.578125 -3.9375 1.578125 -3.1875 C 1.578125 -2.414062 1.757812 -1.820312 2.125 -1.40625 C 2.5 -0.988281 2.984375 -0.78125 3.578125 -0.78125 C 4.046875 -0.78125 4.429688 -0.890625 4.734375 -1.109375 C 5.046875 -1.328125 5.257812 -1.632812 5.375 -2.03125 L 6.515625 -2.03125 C 6.335938 -1.382812 5.992188 -0.863281 5.484375 -0.46875 C 4.984375 -0.0820312 4.347656 0.109375 3.578125 0.109375 C 2.984375 0.109375 2.453125 -0.0234375 1.984375 -0.296875 C 1.515625 -0.566406 1.148438 -0.945312 0.890625 -1.4375 C 0.628906 -1.9375 0.5 -2.519531 0.5 -3.1875 Z M 0.5 -3.1875 "/></g></g></g><g fill="#3b83f6" fill-opacity="1"><g transform="translate(224.280007, 59.184779)"><g><path d="M 3.65625 0.109375 C 3.0625 0.109375 2.519531 -0.0234375 2.03125 -0.296875 C 1.550781 -0.566406 1.175781 -0.953125 0.90625 -1.453125 C 0.632812 -1.953125 0.5 -2.53125 0.5 -3.1875 C 0.5 -3.832031 0.640625 -4.398438 0.921875 -4.890625 C 1.203125 -5.390625 1.582031 -5.769531 2.0625 -6.03125 C 2.550781 -6.300781 3.097656 -6.4375 3.703125 -6.4375 C 4.304688 -6.4375 4.847656 -6.300781 5.328125 -6.03125 C 5.816406 -5.769531 6.203125 -5.390625 6.484375 -4.890625 C 6.765625 -4.398438 6.90625 -3.832031 6.90625 -3.1875 C 6.90625 -2.53125 6.757812 -1.953125 6.46875 -1.453125 C 6.175781 -0.953125 5.785156 -0.566406 5.296875 -0.296875 C 4.804688 -0.0234375 4.257812 0.109375 3.65625 0.109375 Z M 3.65625 -0.828125 C 4.03125 -0.828125 4.382812 -0.914062 4.71875 -1.09375 C 5.050781 -1.269531 5.316406 -1.535156 5.515625 -1.890625 C 5.722656 -2.242188 5.828125 -2.675781 5.828125 -3.1875 C 5.828125 -3.6875 5.722656 -4.113281 5.515625 -4.46875 C 5.316406 -4.820312 5.054688 -5.085938 4.734375 -5.265625 C 4.410156 -5.441406 4.0625 -5.53125 3.6875 -5.53125 C 3.300781 -5.53125 2.945312 -5.441406 2.625 -5.265625 C 2.3125 -5.085938 2.054688 -4.820312 1.859375 -4.46875 C 1.671875 -4.113281 1.578125 -3.6875 1.578125 -3.1875 C 1.578125 -2.664062 1.671875 -2.226562 1.859375 -1.875 C 2.046875 -1.519531 2.296875 -1.253906 2.609375 -1.078125 C 2.929688 -0.910156 3.28125 -0.828125 3.65625 -0.828125 Z M 3.65625 -0.828125 "/></g></g></g><g fill="#3b83f6" fill-opacity="1"><g transform="translate(231.674607, 59.184779)"><g><path d="M 8.515625 -6.453125 C 9.003906 -6.453125 9.441406 -6.347656 9.828125 -6.140625 C 10.210938 -5.941406 10.515625 -5.632812 10.734375 -5.21875 C 10.960938 -4.8125 11.078125 -4.316406 11.078125 -3.734375 L 11.078125 0 L 10.03125 0 L 10.03125 -3.578125 C 10.03125 -4.210938 9.875 -4.695312 9.5625 -5.03125 C 9.25 -5.363281 8.828125 -5.53125 8.296875 -5.53125 C 7.753906 -5.53125 7.320312 -5.351562 7 -5 C 6.675781 -4.65625 6.515625 -4.148438 6.515625 -3.484375 L 6.515625 0 L 5.46875 0 L 5.46875 -3.578125 C 5.46875 -4.210938 5.3125 -4.695312 5 -5.03125 C 4.6875 -5.363281 4.265625 -5.53125 3.734375 -5.53125 C 3.179688 -5.53125 2.742188 -5.351562 2.421875 -5 C 2.097656 -4.65625 1.9375 -4.148438 1.9375 -3.484375 L 1.9375 0 L 0.890625 0 L 0.890625 -6.34375 L 1.9375 -6.34375 L 1.9375 -5.421875 C 2.144531 -5.753906 2.425781 -6.007812 2.78125 -6.1875 C 3.132812 -6.363281 3.519531 -6.453125 3.9375 -6.453125 C 4.46875 -6.453125 4.9375 -6.332031 5.34375 -6.09375 C 5.757812 -5.851562 6.066406 -5.503906 6.265625 -5.046875 C 6.441406 -5.492188 6.734375 -5.835938 7.140625 -6.078125 C 7.554688 -6.328125 8.015625 -6.453125 8.515625 -6.453125 Z M 8.515625 -6.453125 "/></g></g></g></svg>